<?xml version="1.0" encoding="UTF-8" standalone="no"?>
<!DOCTYPE svg PUBLIC "-//W3C//DTD SVG 1.1//EN"
 "http://www.w3.org/Graphics/SVG/1.1/DTD/svg11.dtd">
<!-- Generated by graphviz version 2.43.0 (0)
 -->
<!-- Title: G Pages: 1 -->
<svg width="560pt" height="441pt"
 viewBox="0.00 0.00 559.64 441.00" xmlns="http://www.w3.org/2000/svg" xmlns:xlink="http://www.w3.org/1999/xlink">
<g id="graph0" class="graph" transform="scale(1 1) rotate(0) translate(4 437)">
<title>G</title><style>.edge>path:hover{stroke-width:8}</style>
<polygon fill="white" stroke="transparent" points="-4,4 -4,-437 555.64,-437 555.64,4 -4,4"/>
<!-- localization -->
<g id="node1" class="node">
<title>localization</title><style>.edge>path:hover{stroke-width:8}</style>
<ellipse fill="#e72222" stroke="black" cx="189.33" cy="-343" rx="42.94" ry="18"/>
<text text-anchor="middle" x="189.33" y="-340.5" font-family="Helvetica,sans-Serif" font-size="10.00" fill="#ffffff">localization</text>
</g>
<!-- main_py -->
<g id="node2" class="node">
<title>main_py</title><style>.edge>path:hover{stroke-width:8}</style>
<ellipse fill="#7e6744" stroke="black" cx="389.33" cy="-18" rx="32.93" ry="18"/>
<text text-anchor="middle" x="389.33" y="-15.5" font-family="Helvetica,sans-Serif" font-size="10.00" fill="#ffffff">main.py</text>
</g>
<!-- localization&#45;&gt;main_py -->
<g id="edge1" class="edge">
<title>localization&#45;&gt;main_py</title><style>.edge>path:hover{stroke-width:8}</style>
<path fill="none" stroke="black" d="M543.33,-198C558.19,-160.38 552.2,-138.31 524.33,-109 481.54,-64 375.47,-133.53 389.33,-73"/>
</g>
<!-- seria_controller -->
<g id="node4" class="node">
<title>seria_controller</title><style>.edge>path:hover{stroke-width:8}</style>
<ellipse fill="#3dd317" stroke="black" cx="249.33" cy="-271" rx="54.31" ry="18"/>
<text text-anchor="middle" x="249.33" y="-268.5" font-family="Helvetica,sans-Serif" font-size="10.00" fill="#000000">seria_controller</text>
</g>
<!-- localization&#45;&gt;seria_controller -->
<g id="edge2" class="edge">
<title>localization&#45;&gt;seria_controller</title><style>.edge>path:hover{stroke-width:8}</style>
<path fill="none" stroke="black" d="M203.24,-325.76C210.71,-317.06 220.06,-306.15 228.38,-296.43"/>
<polygon fill="#e72222" stroke="black" points="231.22,-298.5 235.07,-288.63 225.9,-293.95 231.22,-298.5"/>
</g>
<!-- view_basic -->
<g id="node7" class="node">
<title>view_basic</title><style>.edge>path:hover{stroke-width:8}</style>
<ellipse fill="#406296" stroke="black" cx="187.33" cy="-127" rx="41.59" ry="18"/>
<text text-anchor="middle" x="187.33" y="-124.5" font-family="Helvetica,sans-Serif" font-size="10.00" fill="#ffffff">view_basic</text>
</g>
<!-- localization&#45;&gt;view_basic -->
<g id="edge3" class="edge">
<title>localization&#45;&gt;view_basic</title><style>.edge>path:hover{stroke-width:8}</style>
<path fill="none" stroke="black" d="M165.26,-327.74C147.73,-315.32 127.37,-295.61 129.33,-272"/>
</g>
<!-- view_settings -->
<g id="node8" class="node">
<title>view_settings</title><style>.edge>path:hover{stroke-width:8}</style>
<ellipse fill="#55439d" stroke="black" cx="466.33" cy="-127" rx="49.4" ry="18"/>
<text text-anchor="middle" x="466.33" y="-124.5" font-family="Helvetica,sans-Serif" font-size="10.00" fill="#ffffff">view_settings</text>
</g>
<!-- localization&#45;&gt;view_settings -->
<g id="edge4" class="edge">
<title>localization&#45;&gt;view_settings</title><style>.edge>path:hover{stroke-width:8}</style>
<path fill="none" stroke="black" d="M331.33,-270C415.84,-218.01 506.87,-292.29 543.33,-200"/>
<path fill="none" stroke="black" d="M543.33,-198C552.23,-175.45 530.65,-157.31 508.09,-145.15"/>
<polygon fill="#e72222" stroke="black" points="509.63,-142 499.12,-140.63 506.47,-148.25 509.63,-142"/>
</g>
<!-- view_tree -->
<g id="node9" class="node">
<title>view_tree</title><style>.edge>path:hover{stroke-width:8}</style>
<ellipse fill="#854096" stroke="black" cx="323.33" cy="-127" rx="38.03" ry="18"/>
<text text-anchor="middle" x="323.33" y="-124.5" font-family="Helvetica,sans-Serif" font-size="10.00" fill="#ffffff">view_tree</text>
</g>
<!-- localization&#45;&gt;view_tree -->
<g id="edge5" class="edge">
<title>localization&#45;&gt;view_tree</title><style>.edge>path:hover{stroke-width:8}</style>
<path fill="none" stroke="black" d="M222.09,-331.17C247.73,-321.94 283.72,-307.27 312.33,-289 321.88,-282.9 321.68,-277.94 331.33,-272"/>
<path fill="none" stroke="black" d="M331.33,-270C358.51,-253.28 308.29,-231.13 315.33,-200"/>
</g>
<!-- seria -->
<g id="node3" class="node">
<title>seria</title><style>.edge>path:hover{stroke-width:8}</style>
<ellipse fill="#a9c247" stroke="black" cx="81.33" cy="-415" rx="27" ry="18"/>
<text text-anchor="middle" x="81.33" y="-412.5" font-family="Helvetica,sans-Serif" font-size="10.00" fill="#000000">seria</text>
</g>
<!-- seria&#45;&gt;seria_controller -->
<g id="edge6" class="edge">
<title>seria&#45;&gt;seria_controller</title><style>.edge>path:hover{stroke-width:8}</style>
<path fill="none" stroke="black" d="M88.18,-397.59C97.03,-378.08 114.11,-345.59 137.33,-325 155.82,-308.6 180.27,-296.24 201.61,-287.61"/>
<polygon fill="#a9c247" stroke="black" points="203.11,-290.78 211.17,-283.9 200.58,-284.25 203.11,-290.78"/>
</g>
<!-- seria_model -->
<g id="node5" class="node">
<title>seria_model</title><style>.edge>path:hover{stroke-width:8}</style>
<ellipse fill="#33cc70" stroke="black" cx="45.33" cy="-343" rx="45.15" ry="18"/>
<text text-anchor="middle" x="45.33" y="-340.5" font-family="Helvetica,sans-Serif" font-size="10.00" fill="#000000">seria_model</text>
</g>
<!-- seria&#45;&gt;seria_model -->
<g id="edge7" class="edge">
<title>seria&#45;&gt;seria_model</title><style>.edge>path:hover{stroke-width:8}</style>
<path fill="none" stroke="black" d="M72.98,-397.76C68.78,-389.61 63.6,-379.53 58.86,-370.31"/>
<polygon fill="#a9c247" stroke="black" points="61.82,-368.42 54.13,-361.12 55.59,-371.62 61.82,-368.42"/>
</g>
<!-- seria_controller&#45;&gt;main_py -->
<g id="edge8" class="edge">
<title>seria_controller&#45;&gt;main_py</title><style>.edge>path:hover{stroke-width:8}</style>
<path fill="none" stroke="black" d="M291.07,-259.49C343.19,-246.21 427.15,-224.2 440.33,-217 450.27,-211.56 454.77,-210.37 459.33,-200"/>
<path fill="none" stroke="black" d="M459.33,-198C477.03,-157.72 398.95,-170.93 389.33,-128"/>
</g>
<!-- view -->
<g id="node6" class="node">
<title>view</title><style>.edge>path:hover{stroke-width:8}</style>
<ellipse fill="#26d9d9" stroke="black" cx="260.33" cy="-199" rx="27" ry="18"/>
<text text-anchor="middle" x="260.33" y="-196.5" font-family="Helvetica,sans-Serif" font-size="10.00" fill="#000000">view</text>
</g>
<!-- seria_controller&#45;&gt;view -->
<g id="edge9" class="edge">
<title>seria_controller&#45;&gt;view</title><style>.edge>path:hover{stroke-width:8}</style>
<path fill="none" stroke="black" d="M252.05,-252.7C253.26,-244.98 254.72,-235.71 256.07,-227.11"/>
<polygon fill="#3dd317" stroke="black" points="259.54,-227.53 257.64,-217.1 252.63,-226.44 259.54,-227.53"/>
</g>
<!-- seria_controller&#45;&gt;view_basic -->
<g id="edge10" class="edge">
<title>seria_controller&#45;&gt;view_basic</title><style>.edge>path:hover{stroke-width:8}</style>
<path fill="none" stroke="black" d="M241.02,-252.91C236.05,-242.57 229.69,-229.09 224.33,-217 215.08,-196.16 205.2,-172.29 197.97,-154.52"/>
<polygon fill="#3dd317" stroke="black" points="201.05,-152.79 194.05,-144.83 194.56,-155.41 201.05,-152.79"/>
</g>
<!-- seria_controller&#45;&gt;view_settings -->
<g id="edge11" class="edge">
<title>seria_controller&#45;&gt;view_settings</title><style>.edge>path:hover{stroke-width:8}</style>
<path fill="none" stroke="black" d="M459.33,-198C465.18,-184.68 467.1,-168.59 467.48,-155.2"/>
<polygon fill="#3dd317" stroke="black" points="470.98,-155.15 467.5,-145.15 463.98,-155.14 470.98,-155.15"/>
</g>
<!-- seria_controller&#45;&gt;view_tree -->
<g id="edge12" class="edge">
<title>seria_controller&#45;&gt;view_tree</title><style>.edge>path:hover{stroke-width:8}</style>
<path fill="none" stroke="black" d="M273.47,-254.74C290.08,-242.41 310.06,-223.3 315.33,-200"/>
<path fill="none" stroke="black" d="M315.33,-198C318.47,-184.11 320.41,-168.38 321.59,-155.35"/>
<polygon fill="#3dd317" stroke="black" points="325.09,-155.4 322.41,-145.15 318.12,-154.83 325.09,-155.4"/>
</g>
<!-- seria_model&#45;&gt;seria_controller -->
<g id="edge13" class="edge">
<title>seria_model&#45;&gt;seria_controller</title><style>.edge>path:hover{stroke-width:8}</style>
<path fill="none" stroke="black" d="M78.56,-330.6C112.45,-318.97 165.3,-300.83 203.23,-287.82"/>
<polygon fill="#33cc70" stroke="black" points="204.69,-291.02 213.01,-284.46 202.42,-284.4 204.69,-291.02"/>
</g>
<!-- seria_model&#45;&gt;view_basic -->
<g id="edge14" class="edge">
<title>seria_model&#45;&gt;view_basic</title><style>.edge>path:hover{stroke-width:8}</style>
<path fill="none" stroke="black" d="M76.79,-329.86C99.67,-318.76 127.03,-299.81 129.33,-272"/>
<path fill="none" stroke="black" d="M129.33,-270C132.71,-229.17 136.74,-218.46 153.33,-181 157.6,-171.36 163.48,-161.45 169.15,-152.86"/>
<polygon fill="#33cc70" stroke="black" points="172.15,-154.67 174.91,-144.44 166.37,-150.71 172.15,-154.67"/>
</g>
<!-- seria_model&#45;&gt;view_tree -->
<g id="edge15" class="edge">
<title>seria_model&#45;&gt;view_tree</title><style>.edge>path:hover{stroke-width:8}</style>
<path fill="none" stroke="black" d="M76.16,-329.51C96.6,-320.27 123.26,-306.3 143.33,-289 188.77,-249.82 178.8,-220.08 224.33,-181 242.51,-165.39 266.04,-152.56 285.61,-143.43"/>
<polygon fill="#33cc70" stroke="black" points="287.18,-146.56 294.85,-139.25 284.3,-140.18 287.18,-146.56"/>
</g>
<!-- view&#45;&gt;main_py -->
<g id="edge16" class="edge">
<title>view&#45;&gt;main_py</title><style>.edge>path:hover{stroke-width:8}</style>
<path fill="none" stroke="black" d="M258.53,-180.71C257.48,-160.96 258.93,-128.83 276.33,-109 311.09,-69.38 376.87,-124.22 389.33,-73"/>
</g>
<!-- view&#45;&gt;view_basic -->
<g id="edge17" class="edge">
<title>view&#45;&gt;view_basic</title><style>.edge>path:hover{stroke-width:8}</style>
<path fill="none" stroke="black" d="M245.55,-183.83C235.67,-174.36 222.44,-161.67 211.09,-150.79"/>
<polygon fill="#26d9d9" stroke="black" points="213.24,-148 203.6,-143.61 208.4,-153.05 213.24,-148"/>
</g>
<!-- view&#45;&gt;view_settings -->
<g id="edge18" class="edge">
<title>view&#45;&gt;view_settings</title><style>.edge>path:hover{stroke-width:8}</style>
<path fill="none" stroke="black" d="M283.96,-189.97C317.49,-178.58 379.5,-157.51 421.81,-143.13"/>
<polygon fill="#26d9d9" stroke="black" points="422.97,-146.43 431.32,-139.9 420.72,-139.8 422.97,-146.43"/>
</g>
<!-- view&#45;&gt;view_tree -->
<g id="edge19" class="edge">
<title>view&#45;&gt;view_tree</title><style>.edge>path:hover{stroke-width:8}</style>
<path fill="none" stroke="black" d="M273.69,-183.15C281.98,-173.94 292.81,-161.91 302.24,-151.43"/>
<polygon fill="#26d9d9" stroke="black" points="305.02,-153.57 309.11,-143.8 299.82,-148.89 305.02,-153.57"/>
</g>
<!-- view_basic&#45;&gt;main_py -->
<g id="edge20" class="edge">
<title>view_basic&#45;&gt;main_py</title><style>.edge>path:hover{stroke-width:8}</style>
<path fill="none" stroke="black" d="M220.11,-115.73C227.71,-113.44 235.78,-111.07 243.33,-109 307.77,-91.29 373.54,-137.94 389.33,-73"/>
<path fill="none" stroke="black" d="M389.33,-72C391.29,-63.92 391.87,-54.94 391.79,-46.7"/>
<polygon fill="#406296" stroke="black" points="395.28,-46.28 391.38,-36.43 388.29,-46.56 395.28,-46.28"/>
</g>
<!-- view_settings&#45;&gt;main_py -->
<g id="edge21" class="edge">
<title>view_settings&#45;&gt;main_py</title><style>.edge>path:hover{stroke-width:8}</style>
<path fill="none" stroke="black" d="M427.03,-115.76C405.53,-107.66 384.19,-94.13 389.33,-73"/>
</g>
<!-- view_tree&#45;&gt;main_py -->
<g id="edge22" class="edge">
<title>view_tree&#45;&gt;main_py</title><style>.edge>path:hover{stroke-width:8}</style>
<path fill="none" stroke="black" d="M350.84,-114.4C366.81,-105.76 384.67,-92.13 389.33,-73"/>
</g>
<!-- view_utility -->
<g id="node10" class="node">
<title>view_utility</title><style>.edge>path:hover{stroke-width:8}</style>
<ellipse fill="#db2f96" stroke="black" cx="387.33" cy="-199" rx="43.62" ry="18"/>
<text text-anchor="middle" x="387.33" y="-196.5" font-family="Helvetica,sans-Serif" font-size="10.00" fill="#ffffff">view_utility</text>
</g>
<!-- view_utility&#45;&gt;main_py -->
<g id="edge23" class="edge">
<title>view_utility&#45;&gt;main_py</title><style>.edge>path:hover{stroke-width:8}</style>
<path fill="none" stroke="black" d="M390.16,-180.8C391.96,-166.49 393.29,-145.68 389.33,-128"/>
<path fill="none" stroke="black" d="M389.33,-126C384.17,-103.02 383.76,-95.89 389.33,-73"/>
</g>
<!-- view_utility&#45;&gt;view_basic -->
<g id="edge24" class="edge">
<title>view_utility&#45;&gt;view_basic</title><style>.edge>path:hover{stroke-width:8}</style>
<path fill="none" stroke="black" d="M355.19,-186.75C320.73,-174.69 265.9,-155.5 228.35,-142.36"/>
<polygon fill="#db2f96" stroke="black" points="229.32,-138.99 218.72,-138.99 227,-145.6 229.32,-138.99"/>
</g>
<!-- view_utility&#45;&gt;view_settings -->
<g id="edge25" class="edge">
<title>view_utility&#45;&gt;view_settings</title><style>.edge>path:hover{stroke-width:8}</style>
<path fill="none" stroke="black" d="M404.86,-182.46C415.35,-173.17 428.87,-161.19 440.56,-150.83"/>
<polygon fill="#db2f96" stroke="black" points="443.13,-153.23 448.3,-143.98 438.49,-147.99 443.13,-153.23"/>
</g>
<!-- view_utility&#45;&gt;view_tree -->
<g id="edge26" class="edge">
<title>view_utility&#45;&gt;view_tree</title><style>.edge>path:hover{stroke-width:8}</style>
<path fill="none" stroke="black" d="M372.48,-181.76C364.32,-172.84 354.05,-161.61 345.01,-151.72"/>
<polygon fill="#db2f96" stroke="black" points="347.42,-149.17 338.09,-144.15 342.25,-153.89 347.42,-149.17"/>
</g>
</g>
</svg>
